REM DIRINDEX 1\2,1\3,1\4,1\5,1\6,1\7,1\8
REM DIRNAME cjc150,folder01,folder02,folder03,folder04,folder05,folder06,folder07
TITLE ""
FILE "008 でる文58.mp3" MP3
  TRACK 01 AUDIO
    TITLE "8:cjc150_2741"
    INDEX 01 00:00:00
  TRACK 02 AUDIO
    TITLE "0:"
    INDEX 01 00:01:58
  TRACK 03 AUDIO
    TITLE "2:cjc150_2742"
    INDEX 01 00:02:43
  TRACK 04 AUDIO
    TITLE "0:"
    INDEX 01 00:09:40
  TRACK 05 AUDIO
    TITLE "8:cjc150_2743"
    INDEX 01 00:10:66
  TRACK 06 AUDIO
    TITLE "0:"
    INDEX 01 00:13:43
  TRACK 07 AUDIO
    TITLE "3:cjc150_2744"
    INDEX 01 00:14:27
  TRACK 08 AUDIO
    TITLE "3:cjc150_2745"
    INDEX 01 00:16:42
  TRACK 09 AUDIO
    TITLE "3:cjc150_2746"
    INDEX 01 00:18:50
  TRACK 10 AUDIO
    TITLE "3:cjc150_2747"
    INDEX 01 00:20:39
  TRACK 11 AUDIO
    TITLE "3:cjc150_2748"
    INDEX 01 00:22:15
  TRACK 12 AUDIO
    TITLE "3:cjc150_2749"
    INDEX 01 00:24:43
  TRACK 13 AUDIO
    TITLE "3:cjc150_2750"
    INDEX 01 00:26:66
  TRACK 14 AUDIO
    TITLE "3:cjc150_2751"
    INDEX 01 00:29:25
  TRACK 15 AUDIO
    TITLE "8:cjc150_2752"
    INDEX 01 00:31:59
  TRACK 16 AUDIO
    TITLE "0:"
    INDEX 01 00:34:36
  TRACK 17 AUDIO
    TITLE "4:cjc150_2753"
    INDEX 01 00:35:15
  TRACK 18 AUDIO
    TITLE "4:cjc150_2754"
    INDEX 01 00:37:28
  TRACK 19 AUDIO
    TITLE "4:cjc150_2755"
    INDEX 01 00:39:74
  TRACK 20 AUDIO
    TITLE "4:cjc150_2756"
    INDEX 01 00:43:31
  TRACK 21 AUDIO
    TITLE "4:cjc150_2757"
    INDEX 01 00:47:19
  TRACK 22 AUDIO
    TITLE "4:cjc150_2758"
    INDEX 01 00:49:53
  TRACK 23 AUDIO
    TITLE "8:cjc150_2759"
    INDEX 01 00:52:43
  TRACK 24 AUDIO
    TITLE "0:"
    INDEX 01 00:55:36
  TRACK 25 AUDIO
    TITLE "5:cjc150_2760"
    INDEX 01 00:56:16
  TRACK 26 AUDIO
    TITLE "5:cjc150_2761"
    INDEX 01 00:58:46
  TRACK 27 AUDIO
    TITLE "5:cjc150_2762"
    INDEX 01 01:01:44
  TRACK 28 AUDIO
    TITLE "5:cjc150_2763"
    INDEX 01 01:03:61
  TRACK 29 AUDIO
    TITLE "5:cjc150_2764"
    INDEX 01 01:05:71
  TRACK 30 AUDIO
    TITLE "5:cjc150_2765"
    INDEX 01 01:08:25
  TRACK 31 AUDIO
    TITLE "5:cjc150_2766"
    INDEX 01 01:11:00
  TRACK 32 AUDIO
    TITLE "5:cjc150_2767"
    INDEX 01 01:12:60
  TRACK 33 AUDIO
    TITLE "5:cjc150_2768"
    INDEX 01 01:14:41
  TRACK 34 AUDIO
    TITLE "5:cjc150_2769"
    INDEX 01 01:16:63
  TRACK 35 AUDIO
    TITLE "5:cjc150_2770"
    INDEX 01 01:19:74
  TRACK 36 AUDIO
    TITLE "5:cjc150_2771"
    INDEX 01 01:22:23
  TRACK 37 AUDIO
    TITLE "5:cjc150_2772"
    INDEX 01 01:24:45
  TRACK 38 AUDIO
    TITLE "5:cjc150_2773"
    INDEX 01 01:27:16
  TRACK 39 AUDIO
    TITLE "5:cjc150_2774"
    INDEX 01 01:30:38
  TRACK 40 AUDIO
    TITLE "5:cjc150_2775"
    INDEX 01 01:32:72
  TRACK 41 AUDIO
    TITLE "8:cjc150_2776"
    INDEX 01 01:35:33
  TRACK 42 AUDIO
    TITLE "0:"
    INDEX 01 01:38:12
  TRACK 43 AUDIO
    TITLE "6:cjc150_2777"
    INDEX 01 01:38:65
  TRACK 44 AUDIO
    TITLE "6:cjc150_2778"
    INDEX 01 01:41:10
  TRACK 45 AUDIO
    TITLE "6:cjc150_2779"
    INDEX 01 01:44:05
  TRACK 46 AUDIO
    TITLE "6:cjc150_2780"
    INDEX 01 01:46:18
  TRACK 47 AUDIO
    TITLE "6:cjc150_2781"
    INDEX 01 01:48:22
  TRACK 48 AUDIO
    TITLE "6:cjc150_2782"
    INDEX 01 01:51:50
  TRACK 49 AUDIO
    TITLE "6:cjc150_2783"
    INDEX 01 01:55:62
  TRACK 50 AUDIO
    TITLE "6:cjc150_2784"
    INDEX 01 01:59:18
  TRACK 51 AUDIO
    TITLE "6:cjc150_2785"
    INDEX 01 02:02:46
  TRACK 52 AUDIO
    TITLE "6:cjc150_2786"
    INDEX 01 02:05:17
  TRACK 53 AUDIO
    TITLE "6:cjc150_2787"
    INDEX 01 02:07:41
  TRACK 54 AUDIO
    TITLE "6:cjc150_2788"
    INDEX 01 02:10:02
  TRACK 55 AUDIO
    TITLE "8:cjc150_2789"
    INDEX 01 02:11:57
  TRACK 56 AUDIO
    TITLE "0:"
    INDEX 01 02:13:36
  TRACK 57 AUDIO
    TITLE "7:cjc150_2790"
    INDEX 01 02:14:14
  TRACK 58 AUDIO
    TITLE "7:cjc150_2791"
    INDEX 01 02:21:10
  TRACK 59 AUDIO
    TITLE "0:"
    INDEX 01 02:28:00
